<mxfile host="65bd71144e">
    <diagram id="Hk8gBMn4EcMRDlutiaRi" name="Page-1">
        <mxGraphModel dx="3080" dy="2831" grid="1" gridSize="10" guides="1" tooltips="1" connect="1" arrows="1" fold="1" page="1" pageScale="1" pageWidth="850" pageHeight="1100" math="0" shadow="0">
            <root>
                <mxCell id="0"/>
                <mxCell id="1" parent="0"/>
                <mxCell id="2" value="程序启动" style="rounded=1;" vertex="1" parent="1">
                    <mxGeometry x="120" y="-1080" width="120" height="40" as="geometry"/>
                </mxCell>
                <mxCell id="3" value="" style="endArrow=classic;entryX=0.5;entryY=0;entryDx=0;entryDy=0;exitX=0.5;exitY=1;exitDx=0;exitDy=0;" edge="1" parent="1">
                    <mxGeometry width="50" height="50" relative="1" as="geometry">
                        <mxPoint x="179.72000000000025" y="-1040" as="sourcePoint"/>
                        <mxPoint x="179.72000000000025" y="-1000" as="targetPoint"/>
                    </mxGeometry>
                </mxCell>
                <mxCell id="4" value="外设初始化" style="rounded=0;" vertex="1" parent="1">
                    <mxGeometry x="120" y="-1000" width="120" height="40" as="geometry"/>
                </mxCell>
                <mxCell id="6" value="" style="endArrow=classic;entryX=0.5;entryY=0;entryDx=0;entryDy=0;exitX=0.5;exitY=1;exitDx=0;exitDy=0;" edge="1" parent="1">
                    <mxGeometry width="50" height="50" relative="1" as="geometry">
                        <mxPoint x="179.72000000000025" y="-960" as="sourcePoint"/>
                        <mxPoint x="179.72000000000025" y="-920" as="targetPoint"/>
                    </mxGeometry>
                </mxCell>
                <mxCell id="15" value="软件系统启动流程图" style="text;strokeColor=none;fillColor=none;align=center;verticalAlign=middle;rounded=0;" vertex="1" parent="1">
                    <mxGeometry x="210" y="-550" width="120" height="30" as="geometry"/>
                </mxCell>
                <mxCell id="23" value="操作系统初始化" style="rounded=0;" vertex="1" parent="1">
                    <mxGeometry x="120" y="-920" width="120" height="40" as="geometry"/>
                </mxCell>
                <mxCell id="25" value="" style="endArrow=classic;entryX=0.5;entryY=0;entryDx=0;entryDy=0;exitX=0.5;exitY=1;exitDx=0;exitDy=0;" edge="1" parent="1">
                    <mxGeometry width="50" height="50" relative="1" as="geometry">
                        <mxPoint x="179.72000000000025" y="-880" as="sourcePoint"/>
                        <mxPoint x="179.72000000000025" y="-840" as="targetPoint"/>
                    </mxGeometry>
                </mxCell>
                <mxCell id="26" value="消息服务框架初始化" style="rounded=0;" vertex="1" parent="1">
                    <mxGeometry x="120" y="-840" width="120" height="40" as="geometry"/>
                </mxCell>
                <mxCell id="27" value="" style="endArrow=classic;entryX=0.5;entryY=0;entryDx=0;entryDy=0;exitX=0.5;exitY=1;exitDx=0;exitDy=0;" edge="1" parent="1">
                    <mxGeometry width="50" height="50" relative="1" as="geometry">
                        <mxPoint x="179.72000000000025" y="-800" as="sourcePoint"/>
                        <mxPoint x="179.72000000000025" y="-760" as="targetPoint"/>
                    </mxGeometry>
                </mxCell>
                <mxCell id="28" value="日志系统初始化" style="rounded=0;" vertex="1" parent="1">
                    <mxGeometry x="120" y="-760" width="120" height="40" as="geometry"/>
                </mxCell>
                <mxCell id="29" value="" style="endArrow=classic;entryX=0.5;entryY=0;entryDx=0;entryDy=0;exitX=0.5;exitY=1;exitDx=0;exitDy=0;" edge="1" parent="1">
                    <mxGeometry width="50" height="50" relative="1" as="geometry">
                        <mxPoint x="179.72000000000025" y="-720" as="sourcePoint"/>
                        <mxPoint x="179.72000000000025" y="-680" as="targetPoint"/>
                    </mxGeometry>
                </mxCell>
                <mxCell id="30" value="USB结点创建" style="rounded=0;" vertex="1" parent="1">
                    <mxGeometry x="120" y="-680" width="120" height="40" as="geometry"/>
                </mxCell>
                <mxCell id="31" value="" style="endArrow=classic;entryX=0.5;entryY=0;entryDx=0;entryDy=0;exitX=0.5;exitY=1;exitDx=0;exitDy=0;" edge="1" parent="1">
                    <mxGeometry width="50" height="50" relative="1" as="geometry">
                        <mxPoint x="179.72000000000025" y="-640" as="sourcePoint"/>
                        <mxPoint x="179.72000000000025" y="-600" as="targetPoint"/>
                    </mxGeometry>
                </mxCell>
                <mxCell id="32" value="Mavlink结点创建" style="rounded=0;" vertex="1" parent="1">
                    <mxGeometry x="120" y="-600" width="120" height="40" as="geometry"/>
                </mxCell>
                <mxCell id="33" value="" style="endArrow=classic;entryX=0;entryY=0.5;entryDx=0;entryDy=0;exitX=0.5;exitY=1;exitDx=0;exitDy=0;" edge="1" parent="1" target="34">
                    <mxGeometry width="50" height="50" relative="1" as="geometry">
                        <mxPoint x="240.00000000000026" y="-580" as="sourcePoint"/>
                        <mxPoint x="240.00000000000026" y="-540" as="targetPoint"/>
                    </mxGeometry>
                </mxCell>
                <mxCell id="34" value="线程启动任务" style="rounded=0;" vertex="1" parent="1">
                    <mxGeometry x="320" y="-600" width="120" height="40" as="geometry"/>
                </mxCell>
                <mxCell id="35" value="" style="endArrow=classic;entryX=0.5;entryY=1;entryDx=0;entryDy=0;exitX=0.5;exitY=0;exitDx=0;exitDy=0;" edge="1" parent="1" source="34" target="36">
                    <mxGeometry width="50" height="50" relative="1" as="geometry">
                        <mxPoint x="360.0000000000002" y="-500" as="sourcePoint"/>
                        <mxPoint x="360.0000000000002" y="-460" as="targetPoint"/>
                    </mxGeometry>
                </mxCell>
                <mxCell id="36" value="各线程线程启动" style="rounded=0;" vertex="1" parent="1">
                    <mxGeometry x="320" y="-680" width="120" height="40" as="geometry"/>
                </mxCell>
                <mxCell id="37" value="" style="endArrow=classic;entryX=0.5;entryY=1;entryDx=0;entryDy=0;exitX=0.5;exitY=0;exitDx=0;exitDy=0;" edge="1" parent="1">
                    <mxGeometry width="50" height="50" relative="1" as="geometry">
                        <mxPoint x="380" y="-680" as="sourcePoint"/>
                        <mxPoint x="380" y="-720" as="targetPoint"/>
                    </mxGeometry>
                </mxCell>
                <mxCell id="43" value="线程执行" style="rounded=1;" vertex="1" parent="1">
                    <mxGeometry x="320" y="-760" width="120" height="40" as="geometry"/>
                </mxCell>
            </root>
        </mxGraphModel>
    </diagram>
</mxfile>